<svg xmlns="http://www.w3.org/2000/svg" width="589" height="104" viewBox="0 0 589 104">
  <g fill="#2AB5CA" fill-rule="evenodd" transform="translate(-9 -26)">
    <path d="M29.4,57.6 L29.4,79.8 L68.28,79.8 L68.28,95.4 L29.4,95.4 L29.4,126 L9.96,126 L9.96,42 L73.44,42 L73.44,57.6 L29.4,57.6 Z M86.64,42 L106.08,42 L106.08,126 L86.64,126 L86.64,42 Z M126,42 L164.16,42 C173.280046,42 181.339965,43.7399826 188.34,47.22 C195.340035,50.7000174 200.779981,55.5999684 204.66,61.92 C208.540019,68.2400316 210.48,75.599958 210.48,84 C210.48,92.400042 208.540019,99.7599684 204.66,106.08 C200.779981,112.400032 195.340035,117.299983 188.34,120.78 C181.339965,124.260017 173.280046,126 164.16,126 L126,126 L126,42 Z M163.2,110.04 C171.600042,110.04 178.299975,107.700023 183.3,103.02 C188.300025,98.3399766 190.8,92.00004 190.8,84 C190.8,75.99996 188.300025,69.6600234 183.3,64.98 C178.299975,60.2999766 171.600042,57.96 163.2,57.96 L145.44,57.96 L145.44,110.04 L163.2,110.04 Z M225.12,42 L263.28,42 C272.400046,42 280.459965,43.7399826 287.46,47.22 C294.460035,50.7000174 299.899981,55.5999684 303.78,61.92 C307.660019,68.2400316 309.6,75.599958 309.6,84 C309.6,92.400042 307.660019,99.7599684 303.78,106.08 C299.899981,112.400032 294.460035,117.299983 287.46,120.78 C280.459965,124.260017 272.400046,126 263.28,126 L225.12,126 L225.12,42 Z M262.32,110.04 C270.720042,110.04 277.419975,107.700023 282.42,103.02 C287.420025,98.3399766 289.92,92.00004 289.92,84 C289.92,75.99996 287.420025,69.6600234 282.42,64.98 C277.419975,60.2999766 270.720042,57.96 262.32,57.96 L244.56,57.96 L244.56,110.04 L262.32,110.04 Z M324.24,42 L343.68,42 L343.68,110.16 L385.8,110.16 L385.8,126 L324.24,126 L324.24,42 Z M437.04,96.24 L437.04,126 L417.6,126 L417.6,96 L385.08,42 L405.72,42 L428.16,79.32 L450.6,42 L469.68,42 L437.04,96.24 Z"/>
    <path fill-rule="nonzero" d="M90.1231056,0.919953106 L5.65053101,39.8974054 C-3.79884359,44.2587022 -0.688593721,58.4999988 9.73639022,58.4999988 L45.4999981,58.4999988 L45.4999981,94.2485762 C45.4999981,104.755623 59.7514506,107.76167 64.1025911,98.3344355 L103.061558,13.8582028 C106.901636,5.53799989 98.2369334,-2.82506244 90.1231056,0.919953106 Z" transform="translate(494 26)"/>
  </g>
</svg>
