<svg xmlns="http://www.w3.org/2000/svg" width="589" height="104" viewBox="0 0 589 104">
  <g fill="#FFF" fill-rule="evenodd">
    <path d="M20.4,15.6 L20.4,37.8 L59.28,37.8 L59.28,53.4 L20.4,53.4 L20.4,84 L0.96,84 L0.96,0 L64.44,0 L64.44,15.6 L20.4,15.6 Z M77.64,0 L97.08,0 L97.08,84 L77.64,84 L77.64,0 Z M117,0 L155.16,0 C164.280046,0 172.339965,1.7399826 179.34,5.22 C186.340035,8.7000174 191.779981,13.5999684 195.66,19.92 C199.540019,26.2400316 201.48,33.599958 201.48,42 C201.48,50.400042 199.540019,57.7599684 195.66,64.08 C191.779981,70.4000316 186.340035,75.2999826 179.34,78.78 C172.339965,82.2600174 164.280046,84 155.16,84 L117,84 L117,0 Z M154.2,68.04 C162.600042,68.04 169.299975,65.7000234 174.3,61.02 C179.300025,56.3399766 181.8,50.00004 181.8,42 C181.8,33.99996 179.300025,27.6600234 174.3,22.98 C169.299975,18.2999766 162.600042,15.96 154.2,15.96 L136.44,15.96 L136.44,68.04 L154.2,68.04 Z M216.12,0 L254.28,0 C263.400046,0 271.459965,1.7399826 278.46,5.22 C285.460035,8.7000174 290.899981,13.5999684 294.78,19.92 C298.660019,26.2400316 300.6,33.599958 300.6,42 C300.6,50.400042 298.660019,57.7599684 294.78,64.08 C290.899981,70.4000316 285.460035,75.2999826 278.46,78.78 C271.459965,82.2600174 263.400046,84 254.28,84 L216.12,84 L216.12,0 Z M253.32,68.04 C261.720042,68.04 268.419975,65.7000234 273.42,61.02 C278.420025,56.3399766 280.92,50.00004 280.92,42 C280.92,33.99996 278.420025,27.6600234 273.42,22.98 C268.419975,18.2999766 261.720042,15.96 253.32,15.96 L235.56,15.96 L235.56,68.04 L253.32,68.04 Z M315.24,0 L334.68,0 L334.68,68.16 L376.8,68.16 L376.8,84 L315.24,84 L315.24,0 Z M419.4,54.24 L419.4,84 L399.96,84 L399.96,54 L367.44,0 L388.08,0 L410.52,37.32 L432.96,0 L452.04,0 L419.4,54.24 Z" transform="translate(0 16)"/>
    <path fill-rule="nonzero" d="M90.1231057,0.919953104 L5.65053102,39.8974053 C-3.79884359,44.2587021 -0.688593722,58.4999987 9.73639023,58.4999987 L45.4999982,58.4999987 L45.4999982,94.248576 C45.4999982,104.755623 59.7514507,107.76167 64.1025912,98.3344353 L103.061558,13.8582028 C106.901636,5.53799988 98.2369335,-2.82506244 90.1231057,0.919953104 Z" transform="translate(485)"/>
  </g>
</svg>
